<mxfile host="Electron" modified="2025-03-13T01:00:19.078Z" agent="Mozilla/5.0 (Macintosh; Intel Mac OS X 10_15_7) AppleWebKit/537.36 (KHTML, like Gecko) draw.io/21.2.1 Chrome/112.0.5615.87 Electron/24.1.2 Safari/537.36" etag="aL2DEjyHBLVCbUo3sY12" version="21.2.1" type="device">
  <diagram name="Page-1" id="y7CyIW_QGstxXasxQPz8">
    <mxGraphModel dx="1122" dy="802" grid="1" gridSize="10" guides="1" tooltips="1" connect="1" arrows="1" fold="1" page="1" pageScale="1" pageWidth="1100" pageHeight="850" math="0" shadow="0">
      <root>
        <mxCell id="0" />
        <mxCell id="1" parent="0" />
        <mxCell id="SPy6TJpLkt7YWVayhS9d-5" style="edgeStyle=orthogonalEdgeStyle;rounded=0;orthogonalLoop=1;jettySize=auto;html=1;" edge="1" parent="1" source="SPy6TJpLkt7YWVayhS9d-2" target="SPy6TJpLkt7YWVayhS9d-4">
          <mxGeometry relative="1" as="geometry" />
        </mxCell>
        <mxCell id="SPy6TJpLkt7YWVayhS9d-2" value="&lt;font style=&quot;font-size: 14px;&quot;&gt;{Config}&lt;/font&gt;" style="rounded=0;whiteSpace=wrap;html=1;" vertex="1" parent="1">
          <mxGeometry x="280" y="130" width="120" height="60" as="geometry" />
        </mxCell>
        <mxCell id="SPy6TJpLkt7YWVayhS9d-6" style="edgeStyle=orthogonalEdgeStyle;rounded=0;orthogonalLoop=1;jettySize=auto;html=1;entryX=0;entryY=0.5;entryDx=0;entryDy=0;" edge="1" parent="1" source="SPy6TJpLkt7YWVayhS9d-3" target="SPy6TJpLkt7YWVayhS9d-4">
          <mxGeometry relative="1" as="geometry" />
        </mxCell>
        <mxCell id="SPy6TJpLkt7YWVayhS9d-3" value="&lt;font style=&quot;font-size: 14px;&quot;&gt;&amp;lt;Code/&amp;gt;&lt;/font&gt;" style="rounded=0;whiteSpace=wrap;html=1;" vertex="1" parent="1">
          <mxGeometry x="110" y="280" width="120" height="60" as="geometry" />
        </mxCell>
        <mxCell id="SPy6TJpLkt7YWVayhS9d-9" style="edgeStyle=orthogonalEdgeStyle;rounded=0;orthogonalLoop=1;jettySize=auto;html=1;exitX=1;exitY=0.5;exitDx=0;exitDy=0;" edge="1" parent="1" source="SPy6TJpLkt7YWVayhS9d-4" target="SPy6TJpLkt7YWVayhS9d-11">
          <mxGeometry relative="1" as="geometry">
            <mxPoint x="540" y="309" as="targetPoint" />
          </mxGeometry>
        </mxCell>
        <mxCell id="SPy6TJpLkt7YWVayhS9d-4" value="" style="shape=image;verticalLabelPosition=bottom;labelBackgroundColor=default;verticalAlign=top;aspect=fixed;imageAspect=0;image=data:image/png,iVBORw0KGgoAAAANSUhEUgAAACUAAAAlCAYAAADFniADAAAAAXNSR0IArs4c6QAAAIRlWElmTU0AKgAAAAgABQESAAMAAAABAAEAAAEaAAUAAAABAAAASgEbAAUAAAABAAAAUgEoAAMAAAABAAIAAIdpAAQAAAABAAAAWgAAAAAAAABIAAAAAQAAAEgAAAABAAOgAQADAAAAAQABAACgAgAEAAAAAQAAACWgAwAEAAAAAQAAACUAAAAAY/JsDAAAAAlwSFlzAAALEwAACxMBAJqcGAAABaNJREFUWAnNWG9sU1UUv+e+trQdbDgHkm7o2hIIAm8kw+BYa4hZFAaoIRpDjP+AAEY++CdAgPjJKH7QBBMSxRD4oDFoRCOCEj6ogW2IughlUyFrxwY2kGFgjLXruveuv9vmbd3ra9dCTbhJ3z1/7jn39849997zythd2KhITLy2rvEZRbD7i7OjRH9CHLh2vnWgELuiQHkXBF7lnPYU4tg8RjDROjByfVlfZ+cts87M28yCfDwRe5AxcXNwkGblG5epc7vZ67DbTowapyj3fM9VdfnVUGgwc4yZLgQU1aqBx4mJlCPBSFzpOtlndpSL96qBQQBiQmdvoPtgMis/qnjqm6PR9lguG55LYcj9C4JbFKIfiPhGKYP7opbc8MMGY/uxhBsEY4+4prmO1NQ0uEZ1JmJCUIyLRUKI3uH4yDaTbdFsd6h1HwnxihBsqaNSOVxbW+u0cjIhKDhASrDk5Qun/rFyUKwsfK51L2w2E1ETr5j5rRWwQnKq2Hktx9Nk11t+tTGRVmIhBTsPYI/x8povGbv4RKZRsaCQUkirYppOPUyBAdGbMiONZlAAtsqQGX2xoJCnY82rNs4hTZSPSdKUIK23u+P0Vcl1d5z8DN1BxuoNHOlBePpV16402FFRiigUVJZDaY2tvodsvGm8S3CCv4bnhxnyEcbaM9g0KSigWTkuFFSWQykQQn9bCP6JWUkjyTNmWTH8bYCSmzHdus+1nTDoUva3AWpser+65FFEasaYZGJKo+FTPaFfu/ONLAhU+qjKdiMY306cmrI1uSU2YX8J2jsHlWuKpK5vQhkzJZfeSq5z3pMhH7ebDXlBkTIGyx5eRnPqUkdbOFNXKrpoUJkTe+sCz5Ng/kyZmSamnwiH2n40y/PxhYGStYdFA6AX5B1moRoTCf4OmP8B1OgU4jLwhQw2Eruy0hOrkJdIzhaNsmROZQ7FhJHC1XmM6fSXtI+EWnehk7906+pKRA26hH3e0mXGrOA0RKaBhHZazunx1Lv9dYG9+Hh4toQYslzlBOVbEGhCfR1CzqwjrhxCWbvKWeX6Cptvg8L4QV9dYP99qlqW5bEYgS43c3azBOVVgzuQ2sdRp8SEpq1EAdzLiQ4D4HKms22ohXYjgi+XsfJ2z/yHZma7vTOJZU5xJlbDLc7G5BJZgtTMbjjjcCpPk856wx0t38gp/XVBG0BudjK7CvaSlJWqWUZKI20n6hwH4451ciK7ky8D3yw4W1GtLq6pnLW4HIFfg9+pSEfb0VKBMfxYgeKc8TLUJcNYPh9K2Bc58X3gH8CSrnEyx/EpbnEvaPzE1ZlzGj2Gs1L140BNmzdvMnZXiBg/hEn7cDh+hAg9Jb9mIqGWuaQL+e02V2iTXDgqDiC3nnRMom4k/dpSAZJ+xoGyX3fq2A5e3HA/hc/GveFzLe1YojByx4PduFUQPQcgQ3xwIBo527JWZ6xZLjMiWn1boAivbdHGJbr8avVVBY5h5FKUrymDhKa961CUAEqU9yQg3GWbLl48c0P6Apj58plMsq+xGaq53VZhMUdOEeyr4DML2DhQKWvBDgHAap8aPJiKANHvWv+lpbysZvpwv9Znm6os9qmBXwAGV45YiKX9u/fP1k7IPkdNuiYnAktF6kr9zazKAnUjnjwy1W2/jklX4BW6YLaZl1eHkVO7YUz+yuB3kN9C5HE+kQdvulM6Rb3+MRbjuHmCvDwpQ/rNgWPmMZa3v89XXxGJtMs/NDS/Goyj/zQ+FNtus7un222sUxf6FnyCv++ZXV8VtQ/dnJGoLHjZcEvsQIQfDodaGsxgDD4rUlIBQP3GAHmaA/l6l8u93pDhP44eSUcvtF+rnbdkoVLG/hjVFUb8nG+YJahMA21E32hT2KKUTHASJBKJf+OjB6aisCj+59maaZOP1gXFEon4F/nG3JW6/wAqDM0+qv9yWAAAAABJRU5ErkJggg==;" vertex="1" parent="1">
          <mxGeometry x="310.75" y="280" width="58.5" height="58.5" as="geometry" />
        </mxCell>
        <mxCell id="SPy6TJpLkt7YWVayhS9d-8" value="" style="shape=image;verticalLabelPosition=bottom;labelBackgroundColor=default;verticalAlign=top;aspect=fixed;imageAspect=0;image=data:image/png,iVBORw0KGgoAAAANSUhEUgAAAL4AAACMCAYAAADCxhM7AAAAAXNSR0IArs4c6QAAAIRlWElmTU0AKgAAAAgABQESAAMAAAABAAEAAAEaAAUAAAABAAAASgEbAAUAAAABAAAAUgEoAAMAAAABAAIAAIdpAAQAAAABAAAAWgAAAAAAAABIAAAAAQAAAEgAAAABAAOgAQADAAAAAQABAACgAgAEAAAAAQAAAL6gAwAEAAAAAQAAAIwAAAAABpLXZAAAAAlwSFlzAAALEwAACxMBAJqcGAAAMKRJREFUeAHtfXmMJcd9XvW7r5nZnZ3lHuQe5F4kRV2UVookUtuDmAojRQEkGTAcQJbEKDQgGA4QGYFkJ9hZIIj0hyMrjiEIDIUAUhIECGKDkkzJoujtIaklJVmSSfHYi+Qe3HN2d+7j3fm+qlevut8xr19Pz8lXg+qurqrfUV/9qrq653X9hOiFHgJvQwSsr3zlW5v37L/93lg8fkehXBbRaFRkklErm0pVK5WKlUgnRKmQv/jL50+++vWvf2ncjdHHPvsn2YM79gww79LV6XwuE4+KWSEuz9wq33NgZ7JULFonnv7NxEsvfQ+5JlDm7ZCZgsx8sWLF4pGqlllGtWQyZpUKZch82SMzKJ2R3DkVFI+gdNQoaLuC0nVGQdVYCv+geASl6xbH2KahTe/IZlIPR+Ox++OFkrAilkgk4sKKRpAWImpZVjma+PXQriELzJ/ToH31q3+15Y59u38wtKX/QwsLRfHhRFLEokIM9GVEJBIV+fyCyOXS4siD9z//0snf+eTX/vRzNzUtZQ7kIDPaLDNSrUiZ1aj1q0aZQem0XD/noHgEpaNOQdsVlM4PDkvRS9MGsauVwjGWzqYezuZSH08lk++dm18QURh+BLN+BGfcAEQ0FhPRcnEb7gBsT93w05sH79s2NHA4kYiJKipWq0UYLNIw3IV8gXVFvlAUMPDDm7Kpd+HyuMzEQcrMpCEz0VZmuVyFzIxnsAWl03L9nAPjERBH6hS0XUHp/OCwFL3qtEHsaoVwjE1NTnxiLG7dkU4nRaFYFhZMrVSuiCLSlWpVJOJxUSpVds/OLXwCDfozDdq2rQN/fGD/rtj0zKzo78+JGKZ7LI3EtbFxMTu7gAFQlYOnry8by2VTXwZd3fAnJ8c/nohbuzKLyCxLmXmPzKB0Wmc/56B4BKWjTkHbFZTODw5L0Yu0QfEIStetvrGnn/r+vmwug8k3AVoLy5sIjNaSMRqLY9mDJUws0S+s2D4y1+Gxb//lp7/zeAQDI4nnghgGTFTE4wmRSKYQM4iki8P446SnAdfD8Z/+cH8mm+4sMxL3yAxKVxfsIxEUj6B0VClou4LS+YBBVlkK/6B4BKXrFkcrne6vcpqPwOBpqHJpE6WxIsKQaczJZFYkU1nxj//wEy49ZEinB6r5wqx8GMZwwWyP5Q7+KnLZUxVxDJhMpl/0bxoSt23fK371wo8MbQYyQdNZZgYyn1oyndbZzzk4HsFwpE7pNYpHUL1kmwLb1crgGFPreWX08URKGrzFp1osVYp4QJ2dHseyp4jLisduYvEYbBczO+8ImPXloMHMz8BBUCoVRaEwL65dOSfGb16T+frAh19t9G1lgh6vlTSJPAel8zDpcBEUj6B0VCdou4LSdYCgXrwU/kHxCErXLY6xZDr7ZjKRimCms7J9m0QqlZFLlwoMvZifFzMzE2J2Zqq6kJ8ti+lbdVB4F8j1JRA3i/6BIdHXvwV3hjRuHhYGSgHr/EkxPXlDTIxfEwUMoBk3bSr7RjKZiiqZA5CZdclE3Rk8JyiZFY/MgHR1pX0kAuMREEeqhLvpmsQjqF6yTQHxCIp/tzhi4o4/nkikI+lsn5XrHxTZbF81FkmICv4WFqYx8wurUi7hxQ2eeF0hnsz8YTKRySaSOSsez8Dg43gywKsgLGIqwqrGYjG8n09hMPRXrUgUjEyIx+Pf0TL7+rZUM7k+oWXOz8/yAQNLphYyA9IZyZ1TgfEIiCM1Wqt4BNVLtikgHkHxXwqOpO2FHgJvCwTqD45NrX1qbKSW54iHtjpN5e0yNN1DW0faVWmZ/9QYX3ce61KWDZqjkt9DW4fleTkOuk1CdIuFDXWo3yjaNYKzv6DldUdjg/nyY8EWaP26x2OE5F1hwfpaXoh44Cm2bXBQQiCPQzDjCNJ+AmmO+K7/1Jgt+Qth+2Eu6xia47geRTzmmzZYRQdkQbCgftTNHx6mXUdqNDbOiwdDQ1k2IvFY7uBAQBA8SOMPC7bAtC10PNobvprlvQb11FjVl0Hr2VfN4mxC68CGqX9ssbMcxPZBgTBSGyQEkIF3iJGu7hKKrrvj0rDgXWJYClwMDzcWun47LZuxYD+p2M2s2I5/p/yl4dEZC8pfZjzaGz6FKxAJqI3IDrRwplJqADTeBZSyjqyjaEfrdWWm66BojyNnuCZnFGnbVUMlVSezHuMRROrDulo/mVz2w1KwMLq2xqMZC1I049EKCzVIbNQ/UsORtMsfloJH97bB9qwCHuwYGrs7qDyVrzqOA4LXI+5qtTzvnUItnWjIJphOVXn6WtW16xWVDC9tvXAFEkp+MCyonqbXOLXCQtWzUVe1sx0Wht/6xKMRC9We4/V281oHjQGvdbrRNlQZbbAjHpbm2/GsOoqzyrCnLpVQM/VRnB1EzsTeOsxTynDUsp5aojBfB8WHZQw2ooPIejyr0E4HXb5S53Z6+MWCeio8bKSasVDlIzhpPBykvVggAzxGcGzuE5atZGinh188OtkG26JkrBIeFL7YaGKZWgbxPOLBXtFy5meZ3VBm1/JZ7i3TFTvJ1vVW6txJH39YKDzdbWZa0RKnatvmdJLflnCZCjrp4w+PxWwjVDwWX+M3YmTWZscbi2rXNmZo3kU4swvZcQaQI8jhnYBlbITudHbuUcRjiLxbOPLsPrDuWpjZ3DqFgYXmYd6cGSxa3TW1/I2Kx2K2ETIelsayq3Mr4NWsdbxm+IqdzlNXyrDVEoaGbiM6iOYWzlnBfY0LOUDWmtFTLx3CwYLcbEQH+A3zQoa3Lx422u8gGtvABWwhNPvobsancAY9UylFVJ7qOG3c2mCVomqmP4KKRxGZRx4cdKOINmLr0MqoWtdcvdxwsBiu46Ha3Lo9bx88OtsGEVoCHsEMn0JNh4/w0hO0Qmr5QoNXxq5eXapGmfXrUTSgimijnhkImod7BvQIWUMXYWCh2qsa1cOjWutdt20wKzT7oBEuLbg7jEuS5uC9XbnLFe1RV5ZTS7OBq/+2wqWYr2S4WFCkU5Pbw0NNosSD9rJkPJZu+OwZteSxmawFB+f2Bq9r6bMxGDMI9D/LdJ31cl4OLNj2Hh60DQfRRlwyHl0Z/he+8J+3Hnrnnn+1devmby4s5PHrYXyTix0ZUqmkeCK7U9xdnBJ3F6bF1qHN4rXT5x8/dfbCt779jS//RiracCCvA/ft+f2tWzf910Lt4/Q4Pm750eBeEcFv+j81d1nyJ6+Tp9/8HyfPvvXf2vFqYL1il+3wYBvuK8+JQ4XJehuC4PHjLXvF2dQm8bv5a+A1Vee1FvFo15+tbKOT/ovheireJz41f9m3nbUzBvXJVLvShvx33X/gHYODuY9t374FH4vMy08N+TE6DfaR8rQoWtiWIZERSQyGHduGjqST8WcfffTRlx977LFiAyuhePU9tGPHFjE9PSc7lXweTczJj9aLVlqSJJC3c/ttD2AXCAcZLyJ6vguQlVbp0A6PR+NoAz/Yj6s2BMXji/FZfNNcEJUovoar8VqreLTrT06Mj1SMbfjRf3FcZ0Qx4d/O2pmGb8O3P//51OTkjXdFI4X35bIxbD1SFXNzc/KLK8783FIEJ5FOp8Tc7LS4cXNi761bU++dKgw+A+Hn3Ap8FhtRKV7FD/b3xUW5VMYXW7PS+PlJYhHX+PAFd5IUv8QSN29N7iavz37xPzz7vcf/05tuXquV7uFhkA+zP8PE1WjYnPJt+NHJbPbka69s37X79tvuPrRbzvKvvHpF3Lgxji+1FjAAIthmpE/cvuMgvr+NiVOnz8QvXLi8s1guDEHsObdo3C1S5LV79+1bDx28QyQGMuL6tSvi1vgEBtM8qlr4nLFP3HfvIfkx+5mzZ5Pnz1/eOTOb347CNWH4PTxMj4bZn2HiajRsTvk2fFHOx147eT4yOzNhHdp/u1zOjF2/KiancBvDDmz8+ByrHuynckvu1HDx4gVx+fJ1q1KJJBvFjudn4+MXLkX4Xe6BfTvkzD42dlVwj578QgEbWkWwSwP3m7klB5jmVbaiTbwaea/YdQ+POtSh9meIuNYVbJHwbfix/EJkYWFWnD59WvyXvzgpIvg7eGi/uPfeu0X/9iHM+gVx9dp14Yw+J3dlyOeL3F+n3N+3FRsLekOyXLLI68yZ0+LPv/EKdm+LikN3H5S8tt02iFl/QVwfGxOjoz+TyyDu8IYPn8sDg9t86+uVGP5VDw+DaZj9GSauRsPmlO9/YGGTqXKlUrIOH36POPHsU+Ll3/5cPPjAh2Ggt8TLr5wS586dF1s2D4j/8z+/LUaffkI8/DFbZDOpeLmCvUkawgS2aqtWSuL973+PeP65n4pXfvsL8ZEPf1CMjd2UvM5fuCi2DCpef/+Tvxb//OFh7NGTxO61xXwDq1W77OFhoA+zP8PE1WjYnPI9g86IGZFJZ8XpM+fFv/43/xbLmbi4cgVbhxS4kRQCnmxPnT4Hwz2DdXkEZVexrUgFxj/QLBVbKqfTWesMeD0CXty06uqV69hrs1TndfoUeL18RsSxNeGly1fAqyyy/U03jxa8Vyarh4cb5/D6M1xc3Tp6074NX2D9ja1A8NxpYX9M9QamWk2ILVv6ETdjABTExYtXxNXr09g1GRtGxXIiHcMeO3JUeIViDEle3K5w7AZfZZJfHHy2SF7cwAoPxpIXB1EkmhVy/9hSqYHRKl728DDgh9mfYeJqNGxK+Tb8GTRu87akXNvHYIx33bVbXMaMz/+AYS8UvLeuYlOpfnHP3fvEK5j1+TqSrznL2BGtVcD2hFXu1EX6/fv3Sl7cdJa8mN/X1yfuuWe/ePW1s3hmwJ2gUpWb2bbitRp5PTy8qIfVn2Hj6tXSXPk2fDhriMxNT1TL2B4Q28qKxKE7xEA/thzEq5w+7ImfraRE1argv7YDMPqC3CIcRl3CRlNNMkqlPN4OcTfmiuIV340lUQzLn4zkRfXKeAYgLz4EY28p3miKlSjf9ayN0MPD9EOY/RkmrkbD5lSTUTZXMTnjt65iT8w83sJU8cZlUhz56IPi7rvvFjt2bJf/wOJSZ/SZE5idS3KffUz42E8Wt4KGgBm9Sl4cIAL76o+OTgj7yBFx8OBBsXPndjiVKIrz5y+JZ557HssmDB8wwkMPPFQ082pgvaKXPTwU3GH3Z1i4LmYMvt/q5OPJShwuggbwz6Zdu7bjrUtO3HXn7XKmvoF38Kl4RHz0gQ/AmEvizrvuELt3bRObNueihQL+DdsQ5iP5ahxeg/r7M2Lv3jtqvHaKTQMpQV7JhCUeeOD9ktee3TvAa7sY2JyLlcoYJWsk9PAwHRFmf4aJq9GwOeXb8AXexPRl+/DwOYQZfifW3WVsGNsvXjt5Rvz13zwhnv3Zz7A2FyKVqMIzSgXr8RIMtyz/sdUsNoslTdbiw+z27dslryz2z9S8nvvZCXnHIK9IhLyK4IWf6HR1f2qWGm5ODw+DZ5j9GSauRsPGVBemlBU3x8/jJwp5vL05j9/TVPDgeVrceeedYt/+/ViSRMQLP/+lOPP6WbzyPIM3MXQS0WelM5saZcrrm+OT4DWGtzfnYNhVafR3gdenP7MXRk9ev5C8yA/PCeQlMv3bWvJancweHm7cw+vPcHF16+hO+zb8HKgm8JoxPz8PQ6yKj370o/xJgpidK8rXkHT2dumtS/in1gPiRz/+O6zTJ7Dzcgnv6EnZHPjKsrDA3+VUJK8LeD6YnsmLoaEh/J+qIN6q8frh3z6J5wq8wyevlv8TaOa9Ejk9PLwoh9WfYePq1dJc+Tb8fJR+EEWVjiD4U1NsJy7Ow1hvjc9i5p6U3hL5Tyg+6OKfU/j9DpYnRTymFhea3sQk8VaHvOg1hb6zyOtNPMyOT8yJmzen5O9zLl26Jt7/vnfKsqmpScmrMluQHuiM+quX6uFhsA+zP8PE1WjYnPK9xi9OVsvxeNqiBxOBpccv/uElMTU1L1LpnLjttu34SUGfKOC149POCbymjPJ3OiKe5M8MqsoFokt2Po8H5Rov+sgiL/zyEgNG8UqDF/zfSl5VLOyTNV5lC6+U1kjo4WE6Isz+DBNXo2FzyveMz4fbVLpPzuz82XEylcOvKtMCv00Tr5+7Kv9Zxf/sxuEMIoGPJgoFfKFVqVol0epFjOLFX2HSobTmlS9aLl6DTbzwsNz0arS5SSuV08PDIB1mf4aJq9GwMcV/nIYT1HezR8BstMbQwXeiTtfMG/moHQy6ZrOqBPob4qXqrnaesGs7Wqxqk7oWrnXXGxAE3S2jkQ8VCcrL1YjwDJ9MdYebPR+1qGO1hL/BoPgc1cQ4O4hqQC3VmFxMly1p9OcH9yOB5BgeJOe+O04gPitF5DVQ2yXWQbrzxgOKnmQ2IidQBlsezW4TnfnUCDqdwjX8RmntBwJrOoiLG3N7+s60YL5qgfvicFcEpT87sbsOMxt1ccKwEdfWVivGSPXkRB3dwcFF+zZ3picvxYOpZRj0y2v4VFqH9jMCO1cD6CCtBgMb7m6wdwZ019O05MPgpVN5K3fUg1XP9EZvGsLIoooojI6jjqmr8o6CdnhR2uUsbG2ojtRTD0wj32vw7WltkDiIPDM4iOz7Fek/C4JWJ2gDUUbvQAk22h2O4MJGdBB1GdM2IgMN/hiiAsrLj+UsY1gRIJUoHLUebiPXxst2uPPrRHU6ttlrOKyj7yBMr0TwGqsNkU5NrMaUl8TfRnQQ3fnMYzsYbEQHkYF1bERdhqQMze3VJct4tpaRt3/WCmgbBASFZwUkjcSUIbte7iA9ikjwGRxEr1FpAzQ0iifruu8kpA4zLGakSie20XS2GRSi7ayulj6GJkx9yctgrPF3aiJ0P6hro6uNcpWHBIItj7ofmsvcfL08a4QrfbJWWqAvecZotWFrsEYkvekoXmpQZREO3ro61/DU9R0UjSKGNxC0jHazOnVRddgupae+cy1OY6N+eMsdY8BgW5+VW2Nh6lIHHZxaQtHwgpOJqssrts9GdBAZlm/QKv5dH62uKVaawBi5NlhtMM0Gqw3P3AmorYPIDmIwNM18HZSreosZIbm0C1p+J3ol+3iNzXDHO5CqH8zwFS1F0RgZbEQHkW01eOCiYeZnjo3oIDIo3Bvvllo3VcfGyUFsXRcFayVYa0UR33po4zIdqUEe8fBorueg3K7VYXq0njazlY08PcAcpFWdToaMijIstswxdWwkafRKbyWv84xI3n5ea7Y3dI2Te2amLmwvgy2P5uAg2ayXl7+NOqoeEh0HMOuskWCtET2Cq+E1cAeMaKyNM9kI8o7KfF1uOpodb7vKkKzPcsxnIC2DNp4ReeU+KD0Wf+2o67gNSuWRP42sma+W0W6d39oQSaV01fSmDTaynFo2sWIgBjq0M3aNQft6umQdnK11oKN/Fb2DgHReQ/WWs8wMEGVANokQaAg2EwiKh0rrozYCXeagwJaFrYxX8VY0rV5LmvLRtsZv6lAmZWkdHaQZtC5Ma/1spB1EhlHExvayni3zSa+XMUYWilzlvNJ1mF7HwVrHundW3WvoDghM55uZVuW3N1gbdAza0Jh2EMmLhnOsdsapbnxuAxuplQ93NBqlE+V0MkJUkfJ5Zn0GG9FBZKBOzUZqDNpGqYOo5Kh8XMr22Dg7iAYrXGy0YG20BrVtj+pcG+XagJVxGAJtxMZoTZk3ZXgxn3TtgoMCG5EGNoLz4qHZMO0agVM762teOojKOHm12EzczFe3vVF3M+DIcwOHt4/hN3Zi67uBNgQH1Ud9GSv5Gl68YtB81JU5OkgqYzUP1CzV9W1eNASndk26I4j+jLPZ2EnPQB42ooN4DHHxQSMrbLyDtfGaFKBFZgbXRuFm0nm2dr/NcS9XFBe7xqwVb7ccpp1ahjJIZaBHkTcsZ3RtzK2eE2qEtVeSpLERndoZJxfvxe4OrPk2CD3Db9XJZganAemgZ8cRnSHP2hjV7Mn65k6x+IByanzs2pknB3GUifrdRulCvpTvIB5HmbffjA42yt3BwYXWm+leqCHgBbAHSzMCrY1XGaFaroyASA8Q5h+pMbFrZ6d2HsVZpVvNuGawkd5G1IE8GZhPHjyr5U6zwTuyDAd5h+C5F1oiYLXM7WW2R8AY6NEWlZxanjLWVgbegqhtlhl0rOKW5+DaRuSZQQ0Ele4dfSDQM3wfILVzRnYOn1pyb/9KtbxkZ2SNarRzpkaZ91XmxCvRTF3mydPn4RzvwppzjtfYprV03cU3t2tJ7ZXV5b737Ltv69aBh+i0Ynp2DvtDwMcddprYFYsoR3XcLK7u9G5wUad3fjWnzKGhgYe2b4fMGe4oDRHYhnQXdqyrVLPiMDbSpUzmbd8+BOd4cQe8X0RcM87x/LZ1Ner1DL8D6p/85KOZ2dmJd6aS1ff15eDrCLs2z8PnF7cEqiCdx/bo3BU6lUyJ+TlstXJrYs/k1Mw7ZwoDz4P1mQ7sWxb/y0f+fZ+UmRKHF+bh/Qgb9c5jP6N5Wj+2Iy1iu3TuLJ3E9ixzszNwjjexa3J69p1/8Adf3f/d737tdEumvUwPAj3D98DRfDEXi6dffeW3dHq37QB8f9El6SuvXqo5vctjcy04qoPTu3fcS6d3UXHy1LUE9vbfnS+XWnnEaBbQIic6PpugTDjH27b/rh2ivy8lrr5yqeYcb4G2L2Vq53inz5xOwTne7uliHg4MesEPAj3D74BSVExFXzt1NToDp3f30ENjIgGXRVexpxD8rWK5wf386fRuenpcent8660L4q1LV2MV7GnegXXb4qmpW7EbF29E6Rzv4P6dyjnejavwLTyHHergHA/PFYm4VZdJ53iUGWmxJXtbIW/zgp7hdzKAWSEKWGacOnVS/MU3sY8n/u7av1ccPHBADG4elIZ47epV8eyzJ+QSZH4+D4+Nqeqmga2dOC9aXpf5+in5AL3vwF3iwIF9gs8Z83CGd+3qFSkTjsngI3he7kE0sGUt7S26aPNWvTCy6hqsAwVKlYL4wOH7xTPOj8SL/3gC26F/BNsdTmJz3DfEpUuX4cBis/hf3/2WoKO6f/bQEWydnpaDIGjT4HwGjjEK1Q984H7x7OiPpUw6x5uYmJIyL8Mn2Natg1LmU0/+Xykzk8UOd2vJVVLQxq8QXW/G7wD0eGEhkkrlqmdfvyA+98gfyaXNlatj0uOLfNbEK57XTr4pXnwJMzOcWFyDy1N4PypnM9hHMWCowB0qd5c7exYyv/BHcnklZcJhBh9vGU7COd6LL57C8ioirl69Rpkl7MAYeHmluL59jj3D79TXs7NiYGAQD7ERPFxy605EK4Ulx20il8viuoqdna+ibB5rbwv+APoRK3jRUw38P5JKeQoOOAZFxIqK8UluPYoImbdBJvwKQBchHe1RpgWZ0VgfZFJkcJmdYNho5b2lTocezedLeExNWrFYUqRTWby9uUduix7DQ202k4FfgDgcZPRJn73c3DYWS2DmT8aKAtuGBgyxQrJCPnCohleW6brMCPYZpcwkXp3mcjkpkztTx+JwyhdJxiuVGEdJL/hAoDfjdwIJG7bP4o1NBe/SLTirO3RgpxjA68UY/oE1MJDDEoO+ectiCG5P6R8Mro/k3YGvHIMGPE+LMt4i0dOjhf9HxWO74GM4hh2pM1ImPc2U4SWGrlbn52bk/xN4RxJWrzv9Yt5DqiNSWTEOTzAl7P4cgYuj0Wem4PziI+Ld734Xlh5bpaO6c+ffQv7zMMAiPMFYah2uF+Md+beqMAuZ4xhU2HEaBk7neHS0d99994lt226TMt88d1E88+wL8rmCHJYkrpUKGzyvt9Tx0cGJRExs2pQVe/bsxMzeJw7s340liBBj1y8LFIkjD34QRl8S+/btFnvgqG4z6vJOsJSQiMXwSjQneVLm/n27RC4bVzLxCPvgA4elzDv37hR7dm+no70lvUlaiq7rkbZn+B16LZ6fi/Zlc9XBwS2YbbfB725B9A9sEi+9/Kp44vtPiudOnMADZhUDAXNutST9ApQr1WIsxX9rBQvJUizS15cTlMkHWsqkoz0t88TzL+DuI0Qyznm+hDdMeS53ChErgt839IIfBHpLnQ4o4aG2cvPWdfxEoYi3Nxcwq1bEb19+Tey76y78E+uQ/LHaCy/8UpyFk7ozZ05jqZOCJ5hcNJXb3OTmtIOoejH9xt6qybx4Ac7xsNZ/5dVTmP3vgovVffJnE3S0d/aN1+GVA/9Ug1eZeLIvmhvYsrTbTF2DjZ/oGX6HPobHlmqhVLLy83N4aFVO765cGRNz8yUse7bAsXXN6d1Hak7vCpPw21WMJuK5wL+SnI/EpEy3c7yLeGU6O1uQzvHoaO2tt94SD37kI+KHT9ad40UTmYHAg60DDBuuuGf4Pro0hvfpFbxa5E+R+/o3iXNwVHdtbBK/ipzC73WK+O3OGJxevx+ukrJY6hTwxqUgiviZw1KClsl/UFHmG29eFGM3puBydRrLmgr+UXZNfPifvE/6HpuempAyS0uUuRR91xttb43focdm8PuBKN6pJ5JpLCkS8L/7GzE5NYd/JG3CTxW2yX9ulcoR8ZOfPoM3K/TnhffqeOe/pIB/mmmZ+J+AlElXqG6ZfHamTL7CDEXmkhRef8S9Gb9jn/lxRkZHdUnEutM7PHK2cnrXUVi9Ah3t+XGO55HZ+61OHb9OiSX8m6UT6w1cbr6FPYpWOrWWjtbOTugfeit5ZE95NqKDqOT52agKlXvBi0DP8L14tL8yxn4ElWxEB/EYojZGJGWezQSCg9i9cXqNnHxsRKd2xqku10aashkcRMoKf9CB6UYMPcNfrFeVEWrjsmtVuaPBSJ3M1KHhqd2S2+/E4KCO10CbB5RmzbrHahc2zhxwvPbuq9NalqJz6wnCXjAIWCbZS0kEjCHbLkQcpFtv4aHqK2NURsiBMuxZ7rQ2Thf7enJYptzbkmgPiNw9TevWaie1ZhkOeNmIvUEAEBpDz/CVMREXGqyN6CAy2IgOYmuDR0E9uPeuN8ZPg3MQG+8Ymoxltr5wnR2kR2vXnOVH63cYbdydZnKvDpRPXXh2EA0/XLxdw9vT8FsbO42NhmYjOoidDR6VZNCzsr5ub9Cs4eWrdLGRr2Wzjg4OEjYiz9RPGXEnw0dFGcwA4CWNXwczCMjbfYfRNTb4+e1j+HqZ4O1QbQw0BAZ/s2GzsTqgtRHdZ1zWgz++rK4GkY2Ug8gzdeSgYLDlUR0cnEZlstNA0HcK98BpboPCohMvJXvdHzf2e3xj7DZ6ykGkoagZzpQhq2EWZo4Oqh6v9OCwkXYQyUsZHhKuMCzTehbVs+5TY6K+ZHFV9iSNgQ7XZ2GVRzna+I/VaBycbZlW/rGYNGVaPnONMY/ILc1VfVVXPy9o2d6yEZJvxGBtuEYZg7bRNgdRd7B2esZ8GrGD2GrZgewmI2ce+dhMINAIbUQHcbR2Jk8vP2TIoHQ6jjTLR1Rmw1Evl7QhNhRLg/XmUR6Dbp8yapWn9TPl1NU9GPSA1G1w66UHgcFJtdFNr+Ss26O1bjXXintnZBvZDqLXANsNBlRE0AZkI+0gMihjUmkeWcdGdBAZvPyZo2W0M1xVZ4Qnj/FrOg4gt/HJiq6DNsbGOjrfa6RKhuJt17joweDgmobM4CDaiAxsY/PANDw0TsTGO4hIvc7C+jR8YyxuuNsbo6nFDncbAEuYpzpS8WWe7mSmGZp5q3zv0e0gwltirsxMO1zLPI5zs8EZCpXyx9tGZUZ3G037UFAboKzD0FhPt/sYypqN2wwCTcd6apDJxPo5WOtGVb/GzgaZurarfQ7SXiNgoanLKxvRQdQdyrT/4H6tuRiVMX7WGvYsQdrR+TH8RtpmQ3VQpR0Gdo1cGz8vNQ4jtTLvyXu3Wbyul3LVr6xV12AxBYxR2qjmIGpwmVZB1WFad5iNtIPI0K6+jTI9azlIjyI2z3DI7CpofRdb7pChMhjKZxhddInDGtrAGpc5LOsmaD6m7RqfkSY2zYOGVVT9VlgZ3uwHBzEcTMFoOYK1HEwD8/QasQ0+DqJZZnjLUVRfnzLN4CCa+szx0tjIcRAZvPVU3tKOSpb3JwWNHNVdwRi7HgSLDRZtVEs1/GZdRmpZetJoPRBUu2zU1fUcpHnNMw2cwUwcpj4Ht43Ymi8KViusvuE3g+QADGWUrcuIlQabwDIYI1Y0zNOdxDSDqaOul+fYbrmj9KJOxui1BsqwWUYdR3R2/dyOZ71CSAk9wAx2zQbr1lXdOdx9YUMTB1HnqcGgaNhXNmIzT2SudLBWWqCUZ4zALZ5gOYjaYO3atc7nQ5TTsCZXxuzlp+k0wA74rFzQneyewZV+x6FEa8Omdm6DajT+IOv7pbZY6WzX2LBPHETVF6ofRnBtjFnr7KXT5ZoWJPVgeGraetHyJ6zlF1GTYIzTruXQMHXjmecgMjQbrJfWQR12AIMb2GY6VWdlj1pXbfjGoId9PsQeh8Kj9Zm/kd/KtsZIU3rYyHBjzn7gNc9HEVsPbEOLKvWJzUHaRtRnJGXfmyUTc5YpWMvEt9Xa2i3KqV0sbqy60xVAjfQEe0VAcgv2ldZLE6W3+qmyL8JaJX3XUIZgy9xVmBUXVVnpyCp6ILAvafwMul9H5FWrQzN9Y63OPBopuri2uqjbuaoyVNYjADYTCI48um+TtYy2p2aD1zw4o+h0W/JVL1CGTzXMzN2tUuZOQcrhNd9uY8ja+Km3g+gfA8NDDybyYAh9EHRl+O28/6VSSfFEdqf4f6lt4p7ijHhfAl9CX7nyt78oxZ84/YUP/Xelu/fYzqvfjwb3ir9Jbxf3lGbEp+auCO4mljh9ak169WuHB9sQwZbGn5q7LP1jcf/8106ff/zU2Qvf+vY3vvwbLxLqqhUeb+YGxZ8P3Sv+98SLcmcF7IYs9+Jfi14OG/V/ctNu+c3wD/ruEJ9ZuObBopP+Gtdbt+/+5iuRjNwe8fX0JnEq2S/+48wb4hC2cNFYdMK1FdbM6+pHau28/8Xh++mRyrT4bH5cyhlI5MS1TPHgAxO38r9+9NH4Y4891vTldTuvfo/GZ8UXK2dFsYzBg80K+uMlcX2NevVrh8ejsVnubCaK2bTEI4ltSXZsW9wbYis87ohHxT+tvi4q/VnpdojM1qqXw0b9P1+dlrp+ifongIWlsPCjv8b1vVuS4gOz08rLZGRBxKtjopIGL3zUz+AHV1mxxcG34Yfp/W8jePXr4WGsKcz+DBNXo2Fzyrfhh+n9byN49evhYYwpzP4ME1ejYXPKt+GH6f1vI3j16+FhjCnM/gwTV6Nhc8q34YuQvf+te69+PTw81hRaf4aMq0dJ10XEle6YDMv730bx6tfDQ5lM2P0ZFq6LGbTvGT9M738bwatfDw9jVmH2Z5i4Gg2bU74NH3tUh+b9b0N49evhUbemUPszRFzrCrZI+F7qhOn9byN49evhYawpzP4ME1ejYXPK/4wfove/DeHVr4dH3ZpC7c8Qca0r2CLh3/BFmN7/NoJXvx4exp7C7M8wcTUaNqZ8L3VIGKb3v43g1a+HhzGnMPszTFyNht6Ub8MP0/vfRvDq18PDGFKY/RkmrkbD5pTvpU6Y3v82gle/Hh7GmMLszzBxNRo2p3wbfpje/zaCV78eHsaYwuzPMHE1GjanfBs+SbUnvjC8/2le69mrn25DDw9jG2H0Z5i4Npu8yvG9xg/V+98G8OrXw8NlUiH2Z6i4ulRsTHYx44fr/W/9e/Xr4eE2pvD6M1xc3Tq60119eugm9KTNN7KjMj/oh9FuPkF5eBRbhQt3Gyg+aDsMH3Lx/90qa6+VoNpgQx1+QxvcNpYBi6UbvlLqeA1rB2e7lj6Gc+ddEEyjNF2NvM1WFbp0LZ6XDwu29ljgQbQaWBksaAc0fAZbHtXH44vbRnu7IIslY7E0w29uHBtpIx5FdAevoqZRrGPXKjq18yjOTHMweemQsWZDOFiweWw/8XMQGdYfHm4seMfzbrfS3ja8dqHbvixYRCS0QQ5qKwga53BtJqLRH62lh5F2EJnHNPfZqUoAFAitGs96o7IutxB5aKuF9JHaDmMye80ewsHiGNrH9hMbDvjh2jWXS+sHj2Ys0AxpB51tQ012uv6yYhHM8FXj2EE0eoeaeoLqKHYcAwfHEZlSBzbIrl3zrAcOs1jPYUIG1flr2/jDwUJ3Mtu/fvHohAU71dgG23oc8Siig0gMjiHaiMxjXDYsLDDvLqjGHQHRsSaj13s8mluWjXoOIsMo6vO2ZyN9HNFB1B3OBjNwVmjWSckkaCOy1lo5LBULtsOLh40chYXCqrpu8FgMC9XOKk7DiDRoG9FBHEWkLa24bTQbGbRoG3Tj9L6Q7orG2HWu7kBHZihaNpqBI9mRKR40XwUIB9RIvUwndJ1WsnWdlTwvpo9/LJyaymyzSmu++q7YaiIgka63FvBYTBeFhQ2N2fcOotcukFFry4rahn/Db9c408k224DQbLimjqqhR7i+4tnUGcWVBmnUMwi0Dq3uNm5ey53WejQanWmDXVOhGQsWeOu1qzOCmtoYHKS9WCCjbvyriYc/LKg/A9vqyJQ+GCx0Tqt22igkFqHZhr81fmPjqCwfUrm0UQqxQRxEw4hHEE1QtFSadYZlZKl62B1hshZsnFWjFS820tQjH3UnYD5l2yxe8bAULKisFw9iZtooLzwHjWszFqy22nj4xUJNEMegMe3ABC8WK2obnQ3fbIB6DJ3WbOzKmB3TmlpKDw5eNtZRHTaMkvYPrqyjojIO8lEDjSkG6jIiUyt1CIoF9WuHx1KwMO2nUa0sHsuBBXFaCh6kV6EjFsaoNIn7rBpnI8upZRNgKufIc6uDMk7W4+jmKHZaVavnmVHPLL/1eVexSYDAWXFEppbzEBQL3r1MGxdvn6lH/NhGts1p2yxVX2PBejbi8uMRBAsoVpu41rhtEFS1HOHoIaD+AkFRwPirz1pqNqx2JUfRaR1HeLlsITgW1K87PAwWx7tqj9Gx2hVdt5WNnO7sgnK6xULR2KAL3Tasr3zlW5v37L/9XvwOelehjJ+XRiLVdDoh0um4hCSZjFmlQvniL59/+dWvf/1LajtkWSLExz77J9mDO/YM8PLS1cv5XGYwyh3XLs/cKt9zYGeyVCxaJ57+zcRLL32P3yPXg1tmEfs9R0UU8pRMq1KxEki3ktmO7smBHff+7sL119rR1QX7SLhldINHUDqq5KZdKh5/N7T73t+v3Hx1MRx9wCCrhKmXn/5txCIM/GkbnynceLXRjmObhja9I5tJPRyNx+5PFEoiGrVEPBEVsWhEYKdrEbUsqxyN/Hpo15AFxZ7ToH31q3+15Y59u38wtKX/QwsLRfHhxLtBI8RAX0bgixyRz+dFLpcSRx68//mXTv7OJ7/2p5+7qWmlzBxkRmP3Fxtl4qmDMqtR61eNMtvR/V75lqjEIofb0Wm5fs5B8QhKR53atUv2QZd4/F5pTMTiscOVRej84BC2XnWb6qBXUBzb0UnbiCjbcNtxLJ1NPZzNpT+eSibeOze/IKIRCxv6R2G8liiXKyIKa46Wq9uyqRSxqBt+evPgfduGBg7zw+BquYyN+oswWKSrFbGQL0hs84WiGMilDm/Kpt6FjPqtW8rMpCAz2UImDD8Wg2zKzHgGW1A6qYzPQ2A8AuJItYK2KyidTyhWRa+Vwj82NTnxibG4dUc6nRSFYlnAkYcoweCLSFfggSMRj4tSqbJ7dm7hEwDszzRo27YO/PHBA7tjU9Mzor8/J2IYIJVKRVwfGxczswvSYwUHT19fNtaXS/870NUNf3Jy/OOJuLUrs4jMspSZ98gMSqd19nMOikdQOuoUtF1B6fzgsFp6BcWxW7rY0099f182l8GEn0BbLWFFIjBaS8ZoLI4tRZIw6kS/sGL73IA99u2//PR3Ho9gYCSxPIphwERFPJ4QiWQKMYNIujjuHHHS/ws37fGf/nB/JpvuLDMS98gMSueW3SkdFI+gdNQnaLuC0nXCQJcH5R+UjnKD4tgtXeznJ/6+j9N8BAZPQ+UyIxqlsSLCkGnMyWQ2nkxl1dNuDZVXX3pB5AuzqBvlcMFsj+UO/iq4W3C5E8eAyWT6Rf+mIXHb9r01KnV64cTTfRxknWVmPDKD0nmEd7gIikdQOqoTtF1B6TpAUC8Oyj8oHQUHxbFbuphazyujjydS0uAtC08gWOYU8wtidnocy56iNOY6IkjgAQq2i5mddwTM+nLQYOZn4CAolYqiUJgX166cE+M3r8l8feDDrzb6tjJBX8XSyR2C0rl5dEoHxSMoHfUJ2q6gdJ0w0OVB+Qelk1jI58vu7bFb/GPJdPbNZCIVSaf7rWzfJpFKZ/CAG8P6Hut8GP7MzLiYnZmqLuRny2L6lsaEdwGR60sgbhb9A0Oir38L8tK4eVgYKAVsrjwppidviInxa6JAPm7aVPaNZDIV9SGz4pEZkK6utI9EYDwC4kiVcDddk3ishl4rhT8m7vjjiUQ6ks7240F0EE/y/RZncy5ZFhbm6HGuWsErljKi227iycwfJlLpXCKZw3IoA4OP48kAT7N4OMahGovFwCclkmmupCLTHtp4/DuJRMairFz/oMUlkZaZz89wxQT5JbzZgRKuEA9I52LRMRkYj4A4UqGg7QpK1xGEWoWg/IPSSSwC4hi03/xi0avXQ2BDIPD/AdsaPF3xlAoUAAAAAElFTkSuQmCC;" vertex="1" parent="1">
          <mxGeometry x="830" y="239.25" width="190" height="140" as="geometry" />
        </mxCell>
        <mxCell id="SPy6TJpLkt7YWVayhS9d-19" style="edgeStyle=orthogonalEdgeStyle;rounded=0;orthogonalLoop=1;jettySize=auto;html=1;exitX=1;exitY=0.5;exitDx=0;exitDy=0;entryX=0;entryY=0.5;entryDx=0;entryDy=0;" edge="1" parent="1" source="SPy6TJpLkt7YWVayhS9d-11" target="SPy6TJpLkt7YWVayhS9d-8">
          <mxGeometry relative="1" as="geometry" />
        </mxCell>
        <mxCell id="SPy6TJpLkt7YWVayhS9d-11" value="" style="shape=image;verticalLabelPosition=bottom;labelBackgroundColor=default;verticalAlign=top;aspect=fixed;imageAspect=0;image=data:image/svg+xml,PHN2ZyB4bWxucz0iaHR0cDovL3d3dy53My5vcmcvMjAwMC9zdmciIHZpZXdCb3g9IjAgMCAyNTYgMjU2Ij48ZGVmcz48c3R5bGU+LmNscy0xe2ZpbGw6I2ZmZjt9LmNscy0ye2ZpbGw6IzQwNDI0MTt9LmNscy0ze2ZpbGw6bm9uZTtzdHJva2U6IzQwNDI0MTtzdHJva2UtbGluZWNhcDpyb3VuZDtzdHJva2UtbGluZWpvaW46cm91bmQ7c3Ryb2tlLXdpZHRoOjZweDt9LmNscy00e2ZpbGw6IzY3YjM0Njt9PC9zdHlsZT48L2RlZnM+PGcgZGF0YS1uYW1lPSJMYXllciAxIiBpZD0iTGF5ZXJfMSI+PHBhdGggZD0iTTk3MjkuMzMtMjA3MS40M1YzNzA5LjdILTExMDFWLTIwNzEuNDNIOTcyOS4zM20yLTJILTExMDNWMzcxMS43SDk3MzEuMzNWLTIwNzMuNDNaIi8+PC9nPjxnIGlkPSJpY29ucyI+PGcgaWQ9ImxpbmVzLWxpZ2h0Ij48cGF0aCBkPSJNNDUuNDUsMjAyLjE4YTQxLjk1LDQxLjk1LDAsMCwxLTExLjA2LTgyLjQyQTMuNDgsMy40OCwwLDAsMCwzNywxMTYuMjdjMC0uMTksMC0uMzksMC0uNTlzMC0uMzQsMC0uNTFBMjguMTksMjguMTksMCwwLDEsODYuNzMsOTcuMWEzLjQ0LDMuNDQsMCwwLDAsMi42NiwxLjI0LDQsNCwwLDAsMCwuNjktLjA2LDMuNSwzLjUsMCwwLDAsMi42My0yLjM4LDU5Ljg5LDU5Ljg5LDAsMCwxLDExNy4wNywxNy43OWMwLC4yLDAsLjQsMCwuNnYuNTRhMy40NywzLjQ3LDAsMCwwLDMuMjcsMy41NCw0MS45NCw0MS45NCwwLDAsMS0yLjQ3LDgzLjgxWiIgY2xhc3M9ImNscy0xIi8+PHBhdGggZD0iTTE0OS45LDU3LjI5YTU2LjQ2LDU2LjQ2LDAsMCwxLDU2LjQsNTYuNGMwLC4xNywwLC4zMywwLC40OXMwLC4zOSwwLC41OGE3LDcsMCwwLDAsNi41NSw3LjA4LDM4LjQ3LDM4LjQ3LDAsMCwxLTIuMjcsNzYuODdINDUuNDVBMzguNDcsMzguNDcsMCwwLDEsMzUuMywxMjMuMTJhNyw3LDAsMCwwLDUuMTItN2MwLS4yNCwwLS40NywwLS43YTIuMTMsMi4xMywwLDAsMCwwLS4yNywyNC43MiwyNC43MiwwLDAsMSw0My43LTE1Ljg0LDcsNywwLDAsMCw1LjMzLDIuNDksNi4zNyw2LjM3LDAsMCwwLDEuMzctLjE0QTYuOTMsNi45MywwLDAsMCw5Niw5Ni45Myw1Ni44OCw1Ni44OCwwLDAsMSwxMTYuMTYsNjguNSw1NS44OCw1NS44OCwwLDAsMSwxNDkuOSw1Ny4yOW0wLTYuOTVBNjMuMzksNjMuMzksMCwwLDAsODkuMzksOTQuODdhMzEuNjcsMzEuNjcsMCwwLDAtNTYsMjAuM2MwLC40Mi4wNS44Mi4wNiwxLjI0YTQ1LjQzLDQ1LjQzLDAsMCwwLDEyLDg5LjI1aDE2NS4xYTQ1LjQyLDQ1LjQyLDAsMCwwLDIuNjctOTAuNzZjMC0uNDEsMC0uOCwwLTEuMjFBNjMuMzUsNjMuMzUsMCwwLDAsMTQ5LjksNTAuMzRaIiBjbGFzcz0iY2xzLTIiLz48L2c+PHJlY3Qgcng9IjExIiBoZWlnaHQ9IjcwIiB3aWR0aD0iNzAiIHk9Ijg1Ljk1IiB4PSIxMTUuMjMiIGNsYXNzPSJjbHMtMSIvPjxwYXRoIGQ9Ik0xNzQuMjMsODlhOCw4LDAsMCwxLDgsOHY0OGE4LDgsMCwwLDEtOCw4aC00OGE4LDgsMCwwLDEtOC04Vjk3YTgsOCwwLDAsMSw4LThoNDhtMC02aC00OGExNCwxNCwwLDAsMC0xNCwxNHY0OGExNCwxNCwwLDAsMCwxNCwxNGg0OGExNCwxNCwwLDAsMCwxNC0xNFY5N2ExNCwxNCwwLDAsMC0xNC0xNFoiIGNsYXNzPSJjbHMtMiIvPjxwb2x5bGluZSBwb2ludHM9IjE2Ni4yMyAxMzYuOTUgMTY2LjIzIDEwNC45NSAxNTAuMjMgMTM2Ljk1IDEzNC4yMyAxMDQuOTUgMTM0LjIzIDEzNi45NSIgY2xhc3M9ImNscy0zIi8+PGNpcmNsZSByPSI2IiBjeT0iMTc4LjM1IiBjeD0iMTUwLjIzIiBjbGFzcz0iY2xzLTQiLz48L2c+PC9zdmc+;" vertex="1" parent="1">
          <mxGeometry x="570" y="256.25" width="106" height="106" as="geometry" />
        </mxCell>
        <mxCell id="SPy6TJpLkt7YWVayhS9d-16" value="" style="edgeStyle=orthogonalEdgeStyle;rounded=0;orthogonalLoop=1;jettySize=auto;html=1;exitX=0.5;exitY=1;exitDx=0;exitDy=0;entryX=0.5;entryY=1;entryDx=0;entryDy=0;" edge="1" parent="1" source="SPy6TJpLkt7YWVayhS9d-11" target="SPy6TJpLkt7YWVayhS9d-4">
          <mxGeometry relative="1" as="geometry">
            <mxPoint x="340" y="339" as="targetPoint" />
            <mxPoint x="623" y="362" as="sourcePoint" />
            <Array as="points">
              <mxPoint x="623" y="460" />
              <mxPoint x="340" y="460" />
            </Array>
          </mxGeometry>
        </mxCell>
        <mxCell id="SPy6TJpLkt7YWVayhS9d-15" value="&lt;font style=&quot;font-size: 18px;&quot;&gt;Inventory/State&lt;/font&gt;" style="text;html=1;strokeColor=none;fillColor=none;align=center;verticalAlign=middle;whiteSpace=wrap;rounded=0;" vertex="1" parent="1">
          <mxGeometry x="460" y="425" width="60" height="30" as="geometry" />
        </mxCell>
        <mxCell id="SPy6TJpLkt7YWVayhS9d-17" value="&lt;font style=&quot;font-size: 14px;&quot;&gt;Controller&lt;/font&gt;" style="text;html=1;strokeColor=none;fillColor=none;align=center;verticalAlign=middle;whiteSpace=wrap;rounded=0;" vertex="1" parent="1">
          <mxGeometry x="600" y="240" width="60" height="30" as="geometry" />
        </mxCell>
        <mxCell id="SPy6TJpLkt7YWVayhS9d-20" value="&lt;font style=&quot;font-size: 14px;&quot;&gt;Network&lt;/font&gt;" style="text;html=1;strokeColor=none;fillColor=none;align=center;verticalAlign=middle;whiteSpace=wrap;rounded=0;" vertex="1" parent="1">
          <mxGeometry x="895" y="395" width="60" height="30" as="geometry" />
        </mxCell>
      </root>
    </mxGraphModel>
  </diagram>
</mxfile>
